<?xml version="1.0" encoding="UTF-8" standalone="no"?>
<svg
   xmlns:dc="http://purl.org/dc/elements/1.1/"
   xmlns:cc="http://creativecommons.org/ns#"
   xmlns:rdf="http://www.w3.org/1999/02/22-rdf-syntax-ns#"
   xmlns:svg="http://www.w3.org/2000/svg"
   xmlns="http://www.w3.org/2000/svg"
   viewBox="0 0 1051.25 743.75"
   height="743.75"
   width="1051.25"
   xml:space="preserve"
   version="1.1"
   id="svg2"><metadata
     id="metadata8"><rdf:RDF><cc:Work
         rdf:about=""><dc:format>image/svg+xml</dc:format><dc:type
           rdf:resource="http://purl.org/dc/dcmitype/StillImage" /><dc:title></dc:title></cc:Work></rdf:RDF></metadata><defs
     id="defs6"><clipPath
       id="clipPath24"
       clipPathUnits="userSpaceOnUse"><path
         id="path26"
         d="M 40.152,589.52 764,589.52 764,35 40.152,35 l 0,554.52 z" /></clipPath><clipPath
       id="clipPath34"
       clipPathUnits="userSpaceOnUse"><path
         id="path36"
         d="m 40.152,112 723.848,0 0,-2 -723.848,0 0,2 z" /></clipPath><clipPath
       id="clipPath44"
       clipPathUnits="userSpaceOnUse"><path
         id="path46"
         d="m 40.152,212 723.848,0 0,-1 -723.848,0 0,1 z" /></clipPath><clipPath
       id="clipPath54"
       clipPathUnits="userSpaceOnUse"><path
         id="path56"
         d="m 40.152,313 723.848,0 0,-1 -723.848,0 0,1 z" /></clipPath><clipPath
       id="clipPath64"
       clipPathUnits="userSpaceOnUse"><path
         id="path66"
         d="m 40.152,414 723.848,0 0,-2 -723.848,0 0,2 z" /></clipPath><clipPath
       id="clipPath74"
       clipPathUnits="userSpaceOnUse"><path
         id="path76"
         d="m 40.152,515 723.848,0 0,-2 -723.848,0 0,2 z" /></clipPath><clipPath
       id="clipPath84"
       clipPathUnits="userSpaceOnUse"><path
         id="path86"
         d="m 84,589.52 2,0 0,-554.52 -2,0 0,554.52 z" /></clipPath><clipPath
       id="clipPath94"
       clipPathUnits="userSpaceOnUse"><path
         id="path96"
         d="m 248,589.52 2,0 0,-554.52 -2,0 0,554.52 z" /></clipPath><clipPath
       id="clipPath104"
       clipPathUnits="userSpaceOnUse"><path
         id="path106"
         d="m 413,589.52 1,0 0,-554.52 -1,0 0,554.52 z" /></clipPath><clipPath
       id="clipPath114"
       clipPathUnits="userSpaceOnUse"><path
         id="path116"
         d="m 577,589.52 1,0 0,-554.52 -1,0 0,554.52 z" /></clipPath><clipPath
       id="clipPath124"
       clipPathUnits="userSpaceOnUse"><path
         id="path126"
         d="m 741,589.52 2,0 0,-554.52 -2,0 0,554.52 z" /></clipPath><clipPath
       id="clipPath134"
       clipPathUnits="userSpaceOnUse"><path
         id="path136"
         d="M 40.152,61 764,61 l 0,-2 -723.848,0 0,2 z" /></clipPath><clipPath
       id="clipPath144"
       clipPathUnits="userSpaceOnUse"><path
         id="path146"
         d="m 40.152,162 723.848,0 0,-2 -723.848,0 0,2 z" /></clipPath><clipPath
       id="clipPath154"
       clipPathUnits="userSpaceOnUse"><path
         id="path156"
         d="m 40.152,263 723.848,0 0,-2 -723.848,0 0,2 z" /></clipPath><clipPath
       id="clipPath164"
       clipPathUnits="userSpaceOnUse"><path
         id="path166"
         d="m 40.152,364 723.848,0 0,-2 -723.848,0 0,2 z" /></clipPath><clipPath
       id="clipPath174"
       clipPathUnits="userSpaceOnUse"><path
         id="path176"
         d="m 40.152,465 723.848,0 0,-3 -723.848,0 0,3 z" /></clipPath><clipPath
       id="clipPath184"
       clipPathUnits="userSpaceOnUse"><path
         id="path186"
         d="m 40.152,565 723.848,0 0,-2 -723.848,0 0,2 z" /></clipPath><clipPath
       id="clipPath194"
       clipPathUnits="userSpaceOnUse"><path
         id="path196"
         d="m 166,589.52 2,0 0,-554.52 -2,0 0,554.52 z" /></clipPath><clipPath
       id="clipPath204"
       clipPathUnits="userSpaceOnUse"><path
         id="path206"
         d="m 330,589.52 2,0 0,-554.52 -2,0 0,554.52 z" /></clipPath><clipPath
       id="clipPath214"
       clipPathUnits="userSpaceOnUse"><path
         id="path216"
         d="m 494,589.52 3,0 0,-554.52 -3,0 0,554.52 z" /></clipPath><clipPath
       id="clipPath224"
       clipPathUnits="userSpaceOnUse"><path
         id="path226"
         d="m 659,589.52 2,0 0,-554.52 -2,0 0,554.52 z" /></clipPath><clipPath
       id="clipPath274"
       clipPathUnits="userSpaceOnUse"><path
         id="path276"
         d="m 40.152,589.52 723.848,0 0,-555.371 -723.848,0 0,555.371 z" /></clipPath></defs><g
     transform="matrix(1.25,0,0,-1.25,0,743.75)"
     id="g10"><g
       id="g12"><path
         id="path14"
         style="fill:#ffffff;fill-opacity:1;fill-rule:nonzero;stroke:none"
         d="M 0,0 841,0 841,595 0,595 0,0 Z" /><path
         id="path16"
         style="fill:#ffffff;fill-opacity:1;fill-rule:nonzero;stroke:none"
         d="M 0,0 841,0 841,595 0,595 0,0 Z" /><path
         id="path18"
         style="fill:none;stroke:#ffffff;stroke-width:1.06697798;stroke-linecap:round;stroke-linejoin:round;stroke-miterlimit:10;stroke-dasharray:none;stroke-opacity:1"
         d="M 0,595 841,595 841,0 0,0 0,595 Z" /></g><g
       id="g20"><g
         clip-path="url(#clipPath24)"
         id="g22"><path
           id="path28"
           style="fill:#ffffff;fill-opacity:1;fill-rule:nonzero;stroke:none"
           d="m 40.152,589.523 722.941,0 0,-554.371 -722.941,0 0,554.371 z" /></g></g><g
       id="g30"><g
         clip-path="url(#clipPath34)"
         id="g32"><path
           id="path38"
           style="fill:none;stroke:#ebebeb;stroke-width:0.53348899;stroke-linecap:butt;stroke-linejoin:round;stroke-miterlimit:10;stroke-dasharray:none;stroke-opacity:1"
           d="m 40.152,110.746 722.942,0" /></g></g><g
       id="g40"><g
         clip-path="url(#clipPath44)"
         id="g42"><path
           id="path48"
           style="fill:none;stroke:#ebebeb;stroke-width:0.53348899;stroke-linecap:butt;stroke-linejoin:round;stroke-miterlimit:10;stroke-dasharray:none;stroke-opacity:1"
           d="m 40.152,211.543 722.942,0" /></g></g><g
       id="g50"><g
         clip-path="url(#clipPath54)"
         id="g52"><path
           id="path58"
           style="fill:none;stroke:#ebebeb;stroke-width:0.53348899;stroke-linecap:butt;stroke-linejoin:round;stroke-miterlimit:10;stroke-dasharray:none;stroke-opacity:1"
           d="m 40.152,312.336 722.942,0" /></g></g><g
       id="g60"><g
         clip-path="url(#clipPath64)"
         id="g62"><path
           id="path68"
           style="fill:none;stroke:#ebebeb;stroke-width:0.53348899;stroke-linecap:butt;stroke-linejoin:round;stroke-miterlimit:10;stroke-dasharray:none;stroke-opacity:1"
           d="m 40.152,413.129 722.942,0" /></g></g><g
       id="g70"><g
         clip-path="url(#clipPath74)"
         id="g72"><path
           id="path78"
           style="fill:none;stroke:#ebebeb;stroke-width:0.53348899;stroke-linecap:butt;stroke-linejoin:round;stroke-miterlimit:10;stroke-dasharray:none;stroke-opacity:1"
           d="m 40.152,513.926 722.942,0" /></g></g><g
       id="g80"><g
         clip-path="url(#clipPath84)"
         id="g82"><path
           id="path88"
           style="fill:none;stroke:#ebebeb;stroke-width:0.53348899;stroke-linecap:butt;stroke-linejoin:round;stroke-miterlimit:10;stroke-dasharray:none;stroke-opacity:1"
           d="m 84.746,35.152 0,554.368" /></g></g><g
       id="g90"><g
         clip-path="url(#clipPath94)"
         id="g92"><path
           id="path98"
           style="fill:none;stroke:#ebebeb;stroke-width:0.53348899;stroke-linecap:butt;stroke-linejoin:round;stroke-miterlimit:10;stroke-dasharray:none;stroke-opacity:1"
           d="m 249.055,35.152 0,554.368" /></g></g><g
       id="g100"><g
         clip-path="url(#clipPath104)"
         id="g102"><path
           id="path108"
           style="fill:none;stroke:#ebebeb;stroke-width:0.53348899;stroke-linecap:butt;stroke-linejoin:round;stroke-miterlimit:10;stroke-dasharray:none;stroke-opacity:1"
           d="m 413.359,35.152 0,554.368" /></g></g><g
       id="g110"><g
         clip-path="url(#clipPath114)"
         id="g112"><path
           id="path118"
           style="fill:none;stroke:#ebebeb;stroke-width:0.53348899;stroke-linecap:butt;stroke-linejoin:round;stroke-miterlimit:10;stroke-dasharray:none;stroke-opacity:1"
           d="m 577.664,35.152 0,554.368" /></g></g><g
       id="g120"><g
         clip-path="url(#clipPath124)"
         id="g122"><path
           id="path128"
           style="fill:none;stroke:#ebebeb;stroke-width:0.53348899;stroke-linecap:butt;stroke-linejoin:round;stroke-miterlimit:10;stroke-dasharray:none;stroke-opacity:1"
           d="m 741.969,35.152 0,554.368" /></g></g><g
       id="g130"><g
         clip-path="url(#clipPath134)"
         id="g132"><path
           id="path138"
           style="fill:none;stroke:#ebebeb;stroke-width:1.06697798;stroke-linecap:butt;stroke-linejoin:round;stroke-miterlimit:10;stroke-dasharray:none;stroke-opacity:1"
           d="m 40.152,60.348 722.942,0" /></g></g><g
       id="g140"><g
         clip-path="url(#clipPath144)"
         id="g142"><path
           id="path148"
           style="fill:none;stroke:#ebebeb;stroke-width:1.06697798;stroke-linecap:butt;stroke-linejoin:round;stroke-miterlimit:10;stroke-dasharray:none;stroke-opacity:1"
           d="m 40.152,161.145 722.942,0" /></g></g><g
       id="g150"><g
         clip-path="url(#clipPath154)"
         id="g152"><path
           id="path158"
           style="fill:none;stroke:#ebebeb;stroke-width:1.06697798;stroke-linecap:butt;stroke-linejoin:round;stroke-miterlimit:10;stroke-dasharray:none;stroke-opacity:1"
           d="m 40.152,261.938 722.942,0" /></g></g><g
       id="g160"><g
         clip-path="url(#clipPath164)"
         id="g162"><path
           id="path168"
           style="fill:none;stroke:#ebebeb;stroke-width:1.06697798;stroke-linecap:butt;stroke-linejoin:round;stroke-miterlimit:10;stroke-dasharray:none;stroke-opacity:1"
           d="m 40.152,362.734 722.942,0" /></g></g><g
       id="g170"><g
         clip-path="url(#clipPath174)"
         id="g172"><path
           id="path178"
           style="fill:none;stroke:#ebebeb;stroke-width:1.06697798;stroke-linecap:butt;stroke-linejoin:round;stroke-miterlimit:10;stroke-dasharray:none;stroke-opacity:1"
           d="m 40.152,463.527 722.942,0" /></g></g><g
       id="g180"><g
         clip-path="url(#clipPath184)"
         id="g182"><path
           id="path188"
           style="fill:none;stroke:#ebebeb;stroke-width:1.06697798;stroke-linecap:butt;stroke-linejoin:round;stroke-miterlimit:10;stroke-dasharray:none;stroke-opacity:1"
           d="m 40.152,564.32 722.942,0" /></g></g><g
       id="g190"><g
         clip-path="url(#clipPath194)"
         id="g192"><path
           id="path198"
           style="fill:none;stroke:#ebebeb;stroke-width:1.06697798;stroke-linecap:butt;stroke-linejoin:round;stroke-miterlimit:10;stroke-dasharray:none;stroke-opacity:1"
           d="m 166.898,35.152 0,554.368" /></g></g><g
       id="g200"><g
         clip-path="url(#clipPath204)"
         id="g202"><path
           id="path208"
           style="fill:none;stroke:#ebebeb;stroke-width:1.06697798;stroke-linecap:butt;stroke-linejoin:round;stroke-miterlimit:10;stroke-dasharray:none;stroke-opacity:1"
           d="m 331.207,35.152 0,554.368" /></g></g><g
       id="g210"><g
         clip-path="url(#clipPath214)"
         id="g212"><path
           id="path218"
           style="fill:none;stroke:#ebebeb;stroke-width:1.06697798;stroke-linecap:butt;stroke-linejoin:round;stroke-miterlimit:10;stroke-dasharray:none;stroke-opacity:1"
           d="m 495.512,35.152 0,554.368" /></g></g><g
       id="g220"><g
         clip-path="url(#clipPath224)"
         id="g222"><path
           id="path228"
           style="fill:none;stroke:#ebebeb;stroke-width:1.06697798;stroke-linecap:butt;stroke-linejoin:round;stroke-miterlimit:10;stroke-dasharray:none;stroke-opacity:1"
           d="m 659.816,35.152 0,554.368" /></g></g><g
       id="g230"><path
         id="path232"
         style="fill:none;stroke:#00bfc4;stroke-width:3.20093489;stroke-linecap:butt;stroke-linejoin:round;stroke-miterlimit:10;stroke-dasharray:none;stroke-opacity:1"
         d="m 730.23,229.684 -46.941,4.031 -93.891,-4.031 -23.472,18.144 -23.473,-6.047 -23.469,-6.051 -23.472,-10.078 -70.418,-16.129 -23.473,22.176 -23.473,14.113 -23.472,0 -23.469,-4.031 -70.418,-30.238 -23.473,10.078 -23.472,-122.969 -46.946,-4.031 -70.414,-6.051 -23.472,0" /><path
         id="path234"
         style="fill:none;stroke:#f8766d;stroke-width:3.20093489;stroke-linecap:butt;stroke-linejoin:round;stroke-miterlimit:10;stroke-dasharray:none;stroke-opacity:1"
         d="m 730.23,243.797 -46.941,2.015 -93.891,0 -46.945,4.032 -23.469,-4.032 -23.472,-2.015 -70.418,-6.051 -23.473,0 -46.945,-4.031 -23.469,-4.031 -70.418,4.031 -23.473,0 -23.472,24.191 -23.473,0 -23.473,2.016 -70.414,0 -23.472,-2.016" /><path
         id="path236"
         style="fill:none;stroke:#f8766d;stroke-width:3.20093489;stroke-linecap:butt;stroke-linejoin:round;stroke-miterlimit:10;stroke-dasharray:none;stroke-opacity:1"
         d="m 730.23,155.098 -46.941,8.062 -93.891,18.145 -46.945,8.062 -23.469,4.031 -23.472,4.032 -70.418,14.113 -23.473,4.031 -23.473,6.047 -23.472,4.031 -23.469,4.032 -70.418,2.015 -23.473,0 -23.472,-2.015 -23.473,8.062 -23.473,8.066 -70.414,14.11 -23.472,8.062" /><path
         id="path238"
         style="fill:none;stroke:#00bfc4;stroke-width:3.20093489;stroke-linecap:butt;stroke-linejoin:round;stroke-miterlimit:10;stroke-dasharray:none;stroke-opacity:1"
         d="m 730.23,183.32 -46.941,10.078 -93.891,6.047 -23.472,0 -23.473,-10.078 -23.469,-8.062 -23.472,18.14 -70.418,-4.031 -23.473,6.047 -23.473,-8.063 -23.472,2.016 -23.469,-12.094 -70.418,-18.144 -23.473,0 -23.472,-78.621 -46.946,4.031 -70.414,2.019 -23.472,2.016" /><path
         id="path240"
         style="fill:none;stroke:#00bfc4;stroke-width:3.20093489;stroke-linecap:butt;stroke-linejoin:round;stroke-miterlimit:10;stroke-dasharray:none;stroke-opacity:1"
         d="m 730.23,189.367 -46.941,8.063 -93.891,2.015 -23.472,0 -23.473,10.078 -23.469,-4.031 -23.472,-2.015 -70.418,-4.032 -23.473,2.016 -23.473,-2.016 -23.472,-4.031 -23.469,0 -70.418,-14.109 -23.473,4.031 -23.472,-72.574 -46.946,4.031 -70.414,2.016 -23.472,-2.016" /><path
         id="path242"
         style="fill:none;stroke:#f8766d;stroke-width:3.20093489;stroke-linecap:butt;stroke-linejoin:round;stroke-miterlimit:10;stroke-dasharray:none;stroke-opacity:1"
         d="m 730.23,122.844 -46.941,2.015 -93.891,8.063 -23.472,48.383 -23.473,-8.067 -23.469,-2.015 -23.472,8.062 -70.418,-12.094 -23.473,-2.015 -23.473,-8.063 -23.472,4.032 -23.469,4.031 -70.418,14.109 -23.473,6.051 -23.472,-18.145 -140.832,0" /><path
         id="path244"
         style="fill:none;stroke:#f8766d;stroke-width:3.20093489;stroke-linecap:butt;stroke-linejoin:round;stroke-miterlimit:10;stroke-dasharray:none;stroke-opacity:1"
         d="m 730.23,405.066 -46.941,-20.16 -93.891,-52.41 -23.472,-44.351 -23.473,-10.079 -23.469,-8.066 -23.472,-8.062 -93.891,-16.126 -23.473,-8.066 -23.472,-6.047 -23.469,-6.047 -70.418,-18.144 -23.473,2.015 -23.472,-2.015 -23.473,-16.125 -23.473,4.031 -70.414,6.047 -23.472,2.016" /><path
         id="path246"
         style="fill:none;stroke:#00bfc4;stroke-width:3.20093489;stroke-linecap:butt;stroke-linejoin:round;stroke-miterlimit:10;stroke-dasharray:none;stroke-opacity:1"
         d="m 730.23,120.824 -46.941,-4.031 -93.891,30.238 -23.472,-4.031 -23.473,-2.016 -23.469,14.114 -23.472,-4.036 -70.418,-8.062 -23.473,2.016 -23.473,0 -23.472,4.031 -23.469,0 -70.418,-8.063 -23.473,2.016 -23.472,-52.414 -23.473,8.066 -23.473,6.047 -70.414,8.063 -23.472,2.015" /><path
         id="path248"
         style="fill:none;stroke:#00bfc4;stroke-width:3.20093489;stroke-linecap:butt;stroke-linejoin:round;stroke-miterlimit:10;stroke-dasharray:none;stroke-opacity:1"
         d="m 730.23,292.176 -46.941,14.113 -93.891,12.094 -23.472,2.015 -23.473,0 -23.469,4.032 -23.472,-4.032 -70.418,-6.046 -23.473,-12.094 -23.473,-2.016 -23.472,2.016 -23.469,2.015 -70.418,0 -23.473,-6.05 -23.472,-167.317 -23.473,-6.047 -23.473,-12.097 -70.414,-6.047 -23.472,0" /><path
         id="path250"
         style="fill:none;stroke:#00bfc4;stroke-width:3.20093489;stroke-linecap:butt;stroke-linejoin:round;stroke-miterlimit:10;stroke-dasharray:none;stroke-opacity:1"
         d="m 730.23,199.445 -46.941,14.114 -93.891,20.156 -23.472,8.066 -23.473,-8.066 -23.469,2.015 -23.472,-16.125 -70.418,-10.082 -23.473,-6.046 -23.473,-8.063 -23.472,-4.031 -23.469,-12.098 -70.418,-12.094 -23.473,6.047 -23.472,-72.57 L 166.898,92.605 96.484,90.586 73.012,88.57" /><path
         id="path252"
         style="fill:none;stroke:#00bfc4;stroke-width:3.20093489;stroke-linecap:butt;stroke-linejoin:round;stroke-miterlimit:10;stroke-dasharray:none;stroke-opacity:1"
         d="m 730.23,249.844 -46.941,-6.047 -93.891,-16.129 -23.472,6.047 -23.473,-4.031 -23.469,-2.016 -23.472,-2.016 -70.418,-10.078 -23.473,-4.031 -23.473,-10.082 -23.472,-2.016 -23.469,-18.14 -70.418,-8.067 -23.473,-10.078 -23.472,-48.383 -23.473,4.032 -23.473,-6.047 -70.414,12.097 -23.472,4.032" /><path
         id="path254"
         style="fill:none;stroke:#00bfc4;stroke-width:3.20093489;stroke-linecap:butt;stroke-linejoin:round;stroke-miterlimit:10;stroke-dasharray:none;stroke-opacity:1"
         d="m 730.23,397.004 -46.941,0 -93.891,42.332 -258.191,0 -70.418,52.414 -23.473,0 -23.472,-229.812 -23.473,-12.094 -23.473,0 -70.414,-12.098 -23.472,0" /><path
         id="path256"
         style="fill:none;stroke:#00bfc4;stroke-width:3.20093489;stroke-linecap:butt;stroke-linejoin:round;stroke-miterlimit:10;stroke-dasharray:none;stroke-opacity:1"
         d="m 730.23,110.746 -46.941,10.078 -93.891,12.098 -23.472,4.031 -23.473,-6.047 -23.469,-2.015 -23.472,-18.145 -70.418,-10.078 -23.473,0 -23.473,-2.016 -23.472,0 -23.469,2.016 -93.891,0 -23.472,-24.191 -23.473,0 -23.473,-2.016 -93.886,0" /><path
         id="path258"
         style="fill:none;stroke:#00bfc4;stroke-width:3.20093489;stroke-linecap:butt;stroke-linejoin:round;stroke-miterlimit:10;stroke-dasharray:none;stroke-opacity:1"
         d="m 730.23,132.922 -46.941,12.094 -93.891,22.175 -23.472,6.047 -23.473,-6.047 -23.469,-8.062 -23.472,-6.047 -70.418,-16.129 -23.473,8.063 -23.473,-6.047 -23.472,-20.16 -23.469,8.066 -70.418,-26.207 -23.473,8.062 -23.472,-4.031 -23.473,4.031 -23.473,8.063 -70.414,14.113 -23.472,4.032" /><path
         id="path260"
         style="fill:none;stroke:#f8766d;stroke-width:3.20093489;stroke-linecap:butt;stroke-linejoin:round;stroke-miterlimit:10;stroke-dasharray:none;stroke-opacity:1"
         d="m 730.23,348.621 -46.941,-2.016 -93.891,-14.109 -23.472,2.016 -23.473,-2.016 -23.469,2.016 -23.472,4.031 -70.418,-6.047 -46.946,0 -23.472,-2.016 -23.469,2.016 -70.418,0 -23.473,2.016 -23.472,-4.032 -23.473,0 -23.473,-2.019 -70.414,-8.063 -23.472,-6.046" /><path
         id="path262"
         style="fill:none;stroke:#f8766d;stroke-width:3.20093489;stroke-linecap:butt;stroke-linejoin:round;stroke-miterlimit:10;stroke-dasharray:none;stroke-opacity:1"
         d="m 730.23,205.492 -46.941,-2.015 -93.891,0 -23.472,4.031 -23.473,4.035 -23.469,2.016 -23.472,4.031 -70.418,8.062 -23.473,2.016 -23.473,4.031 -23.472,2.016 -23.469,4.031 -70.418,6.051 -23.473,2.015 -23.472,-24.191 -23.473,4.031 -23.473,2.016 -70.414,4.031 -23.472,-2.015" /><path
         id="path266"
         style="fill:none;stroke:#f8766d;stroke-width:3.20093489;stroke-linecap:butt;stroke-linejoin:round;stroke-miterlimit:10;stroke-dasharray:none;stroke-opacity:1"
         d="m 730.23,96.637 -46.941,2.015 -164.305,0 -23.472,-2.015 -70.418,10.078 -23.473,2.015 -23.473,0 -23.472,-2.015 -23.469,-2.016 -70.418,6.047 -23.473,0 -23.472,4.031 -23.473,2.016 -23.473,-8.063 -70.414,8.063 -23.472,6.051" /><path
         id="path268"
         style="fill:none;stroke:#f8766d;stroke-width:3.20093489;stroke-linecap:butt;stroke-linejoin:round;stroke-miterlimit:10;stroke-dasharray:none;stroke-opacity:1"
         d="m 730.23,149.047 -46.941,8.066 -93.891,14.11 -46.945,8.062 -23.469,6.051 -117.363,20.156 -23.473,8.067 -23.472,2.015 -23.469,4.031 -70.418,12.094 -23.473,2.016 -23.472,4.031 -23.473,2.016 -23.473,4.035 -70.414,16.125 -23.472,6.047" /></g><g
       id="g280"><text
         id="text282"
         style="font-variant:normal;font-weight:normal;font-size:8.79980469px;font-family:TeXGyreHeros;-inkscape-font-specification:TeXGyreHeros-Regular;writing-mode:lr-tb;fill:#4d4d4d;fill-opacity:1;fill-rule:nonzero;stroke:none"
         transform="matrix(1,0,0,-1,30.21875,57.745117)"><tspan
           id="tspan284"
           y="0"
           x="0">0</tspan><tspan
           id="tspan286"
           y="-100.79688"
           x="-4.9999962 -0.10730482">50</tspan><tspan
           id="tspan288"
           y="-201.58986"
           x="-9.9999924 -5.1073012 -0.21460964">100</tspan><tspan
           id="tspan290"
           y="-302.38675"
           x="-9.9999924 -5.1073012 -0.21460964">150</tspan><tspan
           id="tspan292"
           y="-403.17972"
           x="-9.9999924 -5.1073012 -0.21460964">200</tspan><tspan
           id="tspan294"
           y="-503.97269"
           x="-9.9999924 -5.1073012 -0.21460964">250</tspan></text>
<path
         id="path296"
         style="fill:none;stroke:#333333;stroke-width:1.06697798;stroke-linecap:butt;stroke-linejoin:round;stroke-miterlimit:10;stroke-dasharray:none;stroke-opacity:1"
         d="m 37.41,60.348 2.742,0" /><path
         id="path298"
         style="fill:none;stroke:#333333;stroke-width:1.06697798;stroke-linecap:butt;stroke-linejoin:round;stroke-miterlimit:10;stroke-dasharray:none;stroke-opacity:1"
         d="m 37.41,161.145 2.742,0" /><path
         id="path300"
         style="fill:none;stroke:#333333;stroke-width:1.06697798;stroke-linecap:butt;stroke-linejoin:round;stroke-miterlimit:10;stroke-dasharray:none;stroke-opacity:1"
         d="m 37.41,261.938 2.742,0" /><path
         id="path302"
         style="fill:none;stroke:#333333;stroke-width:1.06697798;stroke-linecap:butt;stroke-linejoin:round;stroke-miterlimit:10;stroke-dasharray:none;stroke-opacity:1"
         d="m 37.41,362.734 2.742,0" /><path
         id="path304"
         style="fill:none;stroke:#333333;stroke-width:1.06697798;stroke-linecap:butt;stroke-linejoin:round;stroke-miterlimit:10;stroke-dasharray:none;stroke-opacity:1"
         d="m 37.41,463.527 2.742,0" /><path
         id="path306"
         style="fill:none;stroke:#333333;stroke-width:1.06697798;stroke-linecap:butt;stroke-linejoin:round;stroke-miterlimit:10;stroke-dasharray:none;stroke-opacity:1"
         d="m 37.41,564.32 2.742,0" /><path
         id="path308"
         style="fill:none;stroke:#333333;stroke-width:1.06697798;stroke-linecap:butt;stroke-linejoin:round;stroke-miterlimit:10;stroke-dasharray:none;stroke-opacity:1"
         d="m 166.898,32.41 0,2.742" /><path
         id="path310"
         style="fill:none;stroke:#333333;stroke-width:1.06697798;stroke-linecap:butt;stroke-linejoin:round;stroke-miterlimit:10;stroke-dasharray:none;stroke-opacity:1"
         d="m 331.207,32.41 0,2.742" /><path
         id="path312"
         style="fill:none;stroke:#333333;stroke-width:1.06697798;stroke-linecap:butt;stroke-linejoin:round;stroke-miterlimit:10;stroke-dasharray:none;stroke-opacity:1"
         d="m 495.512,32.41 0,2.742" /><path
         id="path314"
         style="fill:none;stroke:#333333;stroke-width:1.06697798;stroke-linecap:butt;stroke-linejoin:round;stroke-miterlimit:10;stroke-dasharray:none;stroke-opacity:1"
         d="m 659.816,32.41 0,2.742" /><text
         id="text316"
         style="font-variant:normal;font-size:8.79980469px;font-family:'Nimbus Sans L';-inkscape-font-specification:NimbusSanL-Regu;writing-mode:lr-tb;fill:#4d4d4d;fill-opacity:1;fill-rule:nonzero;stroke:none"
         transform="matrix(1,0,0,-1,153.39844,24.116211)"><tspan
           y="0"
           x="0"
           id="tspan318">Nov</tspan></text>
<text
         id="text320"
         style="font-variant:normal;font-weight:normal;font-size:8.79980469px;font-family:TeXGyreHeros;-inkscape-font-specification:TeXGyreHeros-Regular;writing-mode:lr-tb;fill:#4d4d4d;fill-opacity:1;fill-rule:nonzero;stroke:none"
         transform="matrix(1,0,0,-1,170.13567,24.116211)"><tspan
           id="tspan322"
           y="0"
           x="0 4.8926916">06</tspan></text>
<text
         id="text324"
         style="font-variant:normal;font-size:8.79980469px;font-family:'Nimbus Sans L';-inkscape-font-specification:NimbusSanL-Regu;writing-mode:lr-tb;fill:#4d4d4d;fill-opacity:1;fill-rule:nonzero;stroke:none"
         transform="matrix(1,0,0,-1,317.70704,24.116211)"><tspan
           y="0"
           x="0"
           id="tspan326">Nov</tspan></text>
<text
         id="text328"
         style="font-variant:normal;font-weight:normal;font-size:8.79980469px;font-family:TeXGyreHeros;-inkscape-font-specification:TeXGyreHeros-Regular;writing-mode:lr-tb;fill:#4d4d4d;fill-opacity:1;fill-rule:nonzero;stroke:none"
         transform="matrix(1,0,0,-1,334.44427,24.116211)"><tspan
           id="tspan330"
           y="0"
           x="0 4.8926916">13</tspan></text>
<text
         id="text332"
         style="font-variant:normal;font-size:8.79980469px;font-family:'Nimbus Sans L';-inkscape-font-specification:NimbusSanL-Regu;writing-mode:lr-tb;fill:#4d4d4d;fill-opacity:1;fill-rule:nonzero;stroke:none"
         transform="matrix(1,0,0,-1,482.01174,24.116211)"><tspan
           y="0"
           x="0"
           id="tspan334">Nov</tspan></text>
<text
         id="text336"
         style="font-variant:normal;font-weight:normal;font-size:8.79980469px;font-family:TeXGyreHeros;-inkscape-font-specification:TeXGyreHeros-Regular;writing-mode:lr-tb;fill:#4d4d4d;fill-opacity:1;fill-rule:nonzero;stroke:none"
         transform="matrix(1,0,0,-1,498.74897,24.116211)"><tspan
           id="tspan338"
           y="0"
           x="0 4.8926916">20</tspan></text>
<text
         id="text340"
         style="font-variant:normal;font-size:8.79980469px;font-family:'Nimbus Sans L';-inkscape-font-specification:NimbusSanL-Regu;writing-mode:lr-tb;fill:#4d4d4d;fill-opacity:1;fill-rule:nonzero;stroke:none"
         transform="matrix(1,0,0,-1,646.31644,24.116211)"><tspan
           y="0"
           x="0"
           id="tspan342">Nov</tspan></text>
<text
         id="text344"
         style="font-variant:normal;font-weight:normal;font-size:8.79980469px;font-family:TeXGyreHeros;-inkscape-font-specification:TeXGyreHeros-Regular;writing-mode:lr-tb;fill:#4d4d4d;fill-opacity:1;fill-rule:nonzero;stroke:none"
         transform="matrix(1,0,0,-1,663.05366,24.116211)"><tspan
           id="tspan346"
           y="0"
           x="0 4.8926916">27</tspan></text>
<text
         id="text348"
         style="font-variant:normal;font-weight:normal;font-size:11px;font-family:TeXGyreHeros;-inkscape-font-specification:TeXGyreHeros-Regular;writing-mode:lr-tb;fill:#000000;fill-opacity:1;fill-rule:nonzero;stroke:none"
         transform="matrix(1,0,0,-1,390.62109,8.852539)"><tspan
           id="tspan350"
           y="0"
           x="0 6.1160002 12.232 15.125">date</tspan></text>
<text
         id="text352"
         style="font-variant:normal;font-weight:normal;font-size:11px;font-family:TeXGyreHeros;-inkscape-font-specification:TeXGyreHeros-Regular;writing-mode:lr-tb;fill:#000000;fill-opacity:1;fill-rule:nonzero;stroke:none"
         transform="matrix(0,1,1,0,14.108398,280.33594)"><tspan
           id="tspan354"
           y="0"
           x="0 6.1160002 8.5579996 14.674 14.674 14.674 14.674">plan,  . %</tspan><tspan
           id="tspan4502"
           y="0"
           x="0 6.1160002 8.5579996 14.674 14.674 14.674 14.674" /></text>
<path
         id="path356"
         style="fill:#ffffff;fill-opacity:1;fill-rule:nonzero;stroke:none"
         d="m 774.051,343.461 61.469,0 0,-62.25 -61.469,0 0,62.25 z" /><text
         id="text358"
         style="font-variant:normal;font-weight:normal;font-size:11px;font-family:TeXGyreHeros;-inkscape-font-specification:TeXGyreHeros-Regular;writing-mode:lr-tb;fill:#000000;fill-opacity:1;fill-rule:nonzero;stroke:none"
         transform="matrix(1,0,0,-1,779.53125,328.22754)"><tspan
           y="0"
           x="0"
           id="tspan360">DTEK?</tspan></text>
<path
         id="path362"
         style="fill:#ffffff;fill-opacity:1;fill-rule:nonzero;stroke:none"
         d="m 779.531,321.254 17.281,0 0,-17.281 -17.281,0 0,17.281 z" /><path
         id="path364"
         style="fill:none;stroke:#f8766d;stroke-width:3.20093489;stroke-linecap:butt;stroke-linejoin:round;stroke-miterlimit:10;stroke-dasharray:none;stroke-opacity:1"
         d="m 781.258,312.609 13.824,0" /><path
         id="path366"
         style="fill:#ffffff;fill-opacity:1;fill-rule:nonzero;stroke:none"
         d="m 779.531,303.973 17.281,0 0,-17.281 -17.281,0 0,17.281 z" /><path
         id="path368"
         style="fill:none;stroke:#00bfc4;stroke-width:3.20093489;stroke-linecap:butt;stroke-linejoin:round;stroke-miterlimit:10;stroke-dasharray:none;stroke-opacity:1"
         d="m 781.258,295.332 13.824,0" /><text
         id="text370"
         style="font-variant:normal;font-weight:normal;font-size:8.79980469px;font-family:TeXGyreHeros;-inkscape-font-specification:TeXGyreHeros-Regular;writing-mode:lr-tb;fill:#000000;fill-opacity:1;fill-rule:nonzero;stroke:none"
         transform="matrix(1,0,0,-1,802.29297,310.00684)"><tspan
           id="tspan372"
           y="0"
           x="0 4.7606945 10.630164 15.34686 21.21633">FALSE</tspan><tspan
           id="tspan374"
           y="17.277344"
           x="0 5.3766809 11.598143 17.951603">TRUE</tspan></text>
</g></g></svg>